<?xml version="1.0" encoding="utf-8"?>
<!-- Generator: Adobe Illustrator 28.1.0, SVG Export Plug-In . SVG Version: 6.00 Build 0)  -->
<svg version="1.1" id="Capa_1" xmlns="http://www.w3.org/2000/svg" xmlns:xlink="http://www.w3.org/1999/xlink" x="0px" y="0px"
	 viewBox="0 0 11.99 12.02" style="enable-background:new 0 0 11.99 12.02;" xml:space="preserve">
<path d="M11.91,10.99c0.12,0.12,0.12,0.3,0,0.4l-0.54,0.54c-0.09,0.12-0.28,0.12-0.4,0L8.13,9.09C8.09,9.02,8.06,8.95,8.06,8.88
	v-0.3C7.2,9.3,6.09,9.75,4.88,9.75C2.18,9.75,0,7.57,0,4.87C0,2.2,2.18,0,4.88,0c2.67,0,4.88,2.2,4.88,4.87
	c0,1.22-0.47,2.34-1.2,3.19h0.3c0.07,0,0.14,0.05,0.21,0.09L11.91,10.99z M4.88,8.62c2.06,0,3.75-1.66,3.75-3.75
	c0-2.06-1.69-3.75-3.75-3.75c-2.09,0-3.75,1.69-3.75,3.75C1.12,6.96,2.79,8.62,4.88,8.62z"/>
</svg>
